<?xml version="1.0" encoding="utf-8"?>
<!-- Generator: Adobe Illustrator 24.2.3, SVG Export Plug-In . SVG Version: 6.00 Build 0)  -->
<svg version="1.1" id="Layer_1" xmlns="http://www.w3.org/2000/svg" xmlns:xlink="http://www.w3.org/1999/xlink" x="0px" y="0px"
	 viewBox="0 0 490 490" enable-background="new 0 0 490 490" xml:space="preserve" width="30px" height="30px">
<path d="M127.8,485H0V154.8h127.8V485z M21.3,463.7h85.2V176.1H21.3V463.7z"/>
<path d="M490,485H362.2V303.9c0-17.6-14.3-32-32-32c-17.7,0-32,14.3-32,32V485H170.4V154.8h127.8v21.4
	c19.3-13.9,42.5-21.5,66.3-21.4c69.1,0,125.4,56.1,125.4,125V485z M383.5,463.7h85.2V279.8C468.6,222.4,422,176,364.6,176.1
	c-26.2,0-50.9,11.1-69.2,31L277,227.2v-51.1h-85.2v287.6H277V303.9c0-29.4,23.8-53.3,53.3-53.3c29.4,0,53.3,23.8,53.3,53.3V463.7z"
	/>
<path d="M63.9,133.5C28.6,133.5,0,104.9,0,69.6C0,34.3,28.6,5.7,63.9,5.7s63.9,28.6,63.9,63.9C127.8,104.8,99.2,133.4,63.9,133.5z
	 M63.9,27C40.4,27,21.3,46,21.3,69.6c0,23.5,19.1,42.6,42.6,42.6s42.6-19.1,42.6-42.6C106.5,46,87.4,27,63.9,27z"/>
</svg>
