<?xml version="1.0" encoding="utf-8"?>
<!-- Generator: Adobe Illustrator 24.2.3, SVG Export Plug-In . SVG Version: 6.00 Build 0)  -->
<svg version="1.1" id="Layer_1" xmlns="http://www.w3.org/2000/svg" xmlns:xlink="http://www.w3.org/1999/xlink" x="0px" y="0px"
	 viewBox="0 0 497 497" style="enable-background:new 0 0 497 497;" xml:space="preserve" width="30px" height="30px">
<path d="M136.6,320.2C77.1,317.1,30.4,268,30.5,208.4v-37.6h21.3v37.6c-0.1,48.2,37.7,88,85.8,90.5L136.6,320.2z"/>
<path d="M179.7,458.9c-53.4,0-105.7-15.4-150.6-44.5L0,395.5l34.8-0.7c31.2-0.7,60.8-7.7,85.3-20.4C85,357.5,62.6,322,62.5,283
	l21.3-0.8v0.8c0.1,37.7,26.4,70.3,63.3,78.2l23.7,4.9l-19.6,14.1c-22.5,16.3-50.6,27.3-81.1,32.5c34.3,16.3,71.7,24.8,109.7,24.8
	c141.1,0,255.8-114.7,255.8-255.8v-24.2l23.9-39.7h-28l13.2-39.2l-33,14.8l-5.2-4.8c-26.4-24.5-64.8-31-97.8-16.6
	c-33,14.4-54.3,47.1-54.2,83.1v26.8h-10.8C160.4,180.4,85.8,144.7,47,89.3c-10.7,30.2-6.5,63.7,11.4,90.3
	c17.9,26.6,47.2,43.2,79.2,44.8l-0.9,21.3c-42.9-2-81.6-26.2-102.1-63.9C14.1,144,14.8,98.3,36.5,61.3l9.7-16.7l8.9,17.1
	c29.3,56,98.3,93.8,177.9,98.3v-4.9c0-43.2,24.8-82.5,63.8-101c39-18.5,85.2-13,118.6,14.3l64.8-29L461,96.5h36l-40.1,66.9v18.4
	C456.9,334.6,332.6,458.9,179.7,458.9z"/>
</svg>
