<?xml version="1.0" standalone="no"?>
<!DOCTYPE svg PUBLIC "-//W3C//DTD SVG 20010904//EN"
 "http://www.w3.org/TR/2001/REC-SVG-20010904/DTD/svg10.dtd">
<svg version="1.0" xmlns="http://www.w3.org/2000/svg"
 width="460.000000pt" height="460.000000pt" viewBox="0 0 460.000000 460.000000"
 preserveAspectRatio="xMidYMid meet">
<metadata>
Created by potrace 1.11, written by Peter Selinger 2001-2013
</metadata>
<g transform="translate(0.000000,460.000000) scale(0.100000,-0.100000)"
fill="#000000" stroke="none">
<path d="M1617 3666 c-98 -35 -151 -111 -151 -216 0 -79 17 -115 87 -188 l52
-52 -570 -570 -569 -569 -53 50 c-73 69 -129 92 -208 87 -117 -7 -196 -87
-203 -204 -7 -103 32 -174 120 -218 100 -50 196 -29 289 65 l52 51 266 -266
266 -266 -57 -57 c-66 -67 -88 -112 -88 -182 0 -67 42 -146 99 -186 39 -27 50
-30 125 -30 73 0 87 3 124 28 65 43 96 97 100 177 5 81 -15 127 -89 205 l-48
51 264 264 265 265 260 -260 c143 -143 260 -265 260 -270 0 -6 -25 -35 -55
-65 -103 -102 -113 -226 -27 -322 123 -136 336 -88 387 86 12 42 13 63 5 101
-14 64 -24 80 -86 145 l-53 56 264 264 265 265 265 -265 264 -264 -53 -56
c-61 -64 -72 -82 -85 -141 -30 -135 79 -269 218 -269 157 1 262 141 220 294
-7 26 -32 62 -70 101 -32 34 -59 66 -59 71 0 5 117 126 259 268 l260 260 63
-60 c120 -112 253 -114 350 -6 77 86 77 208 0 294 -47 52 -102 78 -170 78 -72
0 -112 -19 -183 -87 l-60 -57 -564 564 c-311 311 -565 570 -565 575 0 6 25 35
55 65 38 37 60 69 71 103 50 149 -57 296 -214 297 -128 0 -225 -97 -225 -225
0 -68 22 -115 84 -181 l53 -55 -265 -265 -264 -264 -264 264 -265 265 66 69
c54 58 68 79 77 121 25 119 -39 231 -153 266 -60 18 -89 18 -139 1z m149 -140
c28 -28 34 -42 34 -76 0 -37 -6 -48 -57 -101 l-57 -60 -39 38 c-48 47 -67 82
-67 125 1 66 44 107 114 108 30 0 45 -7 72 -34z m1194 19 c41 -21 60 -53 60
-103 0 -39 -5 -49 -54 -100 l-55 -57 -27 25 c-47 43 -84 102 -84 132 0 87 85
142 160 103z m-800 -1000 c-108 -110 -120 -240 -32 -337 48 -53 102 -78 172
-78 70 0 126 26 171 79 89 103 77 226 -34 339 l-52 52 263 263 262 262 570
-570 570 -570 -262 -262 -263 -263 -264 265 -265 264 61 64 c85 89 105 173 62
267 -25 56 -53 86 -101 111 -117 60 -259 13 -314 -104 -46 -99 -28 -181 60
-275 l60 -63 -265 -265 -264 -264 -262 262 -262 262 63 66 c71 76 93 130 82
207 -18 132 -148 224 -275 193 -72 -17 -128 -61 -157 -123 -47 -102 -23 -205
71 -297 l45 -45 -262 -262 -263 -263 -262 262 -263 263 567 567 568 568 262
-262 263 -263 -50 -50z m199 -89 c41 -45 51 -61 51 -90 0 -74 -43 -116 -117
-116 -62 1 -103 46 -103 115 0 30 9 46 51 91 29 30 55 54 59 54 4 0 30 -24 59
-54z m-619 -131 c16 -9 36 -29 45 -45 30 -59 15 -107 -55 -175 l-41 -40 -55
57 c-48 50 -54 61 -54 98 0 52 13 76 53 100 39 24 68 25 107 5z m1246 -19 c57
-57 45 -123 -35 -201 l-41 -39 -41 39 c-80 78 -92 144 -35 201 28 28 42 34 76
34 34 0 48 -6 76 -34z m-2659 -268 l53 -52 -43 -44 c-73 -77 -132 -87 -189
-34 -77 72 -13 203 91 188 25 -4 50 -21 88 -58z m4093 47 c16 -8 36 -25 44
-37 23 -32 20 -100 -5 -131 -26 -34 -84 -52 -121 -38 -33 12 -118 89 -118 105
0 17 80 93 110 105 36 14 57 13 90 -4z m-3234 -933 c20 -107 -114 -174 -188
-94 -53 57 -45 109 30 185 l46 47 53 -52 c36 -35 55 -63 59 -86z m1161 96 c49
-51 63 -77 63 -115 0 -74 -83 -131 -150 -103 -46 19 -70 55 -70 107 0 39 5 50
51 99 29 30 55 54 58 54 4 0 25 -19 48 -42z m1232 -12 c46 -49 51 -60 51 -99
0 -52 -24 -88 -70 -107 -89 -37 -183 67 -139 153 13 24 89 107 100 107 3 0 29
-24 58 -54z"/>
</g>
</svg>
